<svg width="1199" height="1533" viewBox="0 0 1199 1533" fill="none" xmlns="http://www.w3.org/2000/svg">
<path d="M222.417 480.65L588.526 651.392C579.92 645.618 405.834 528.266 352.069 435.499C296.938 340.385 300.886 270.025 347.564 201.926C394.241 133.829 509.568 91.0416 685.07 102.304C860.574 113.566 1053.66 166.889 1198.43 297.26C1198.43 297.26 1074.89 77.5335 760.453 16.1896C446.015 -45.1541 204.124 78.6647 64.6327 205.86C27.642 239.58 8.65723 271.764 2.39648 302.444C5.23154 395.988 222.417 480.65 222.417 480.65Z" fill="#2899D5"/>
<path d="M347.581 1330.62C300.886 1262.52 296.955 1192.16 352.087 1097.05C407.219 1001.93 588.898 880.918 588.898 880.918L222.417 1051.81C222.417 1051.81 5.14716 1136.51 2.39648 1230.09C8.65723 1260.77 27.642 1292.95 64.6327 1326.69C204.141 1453.88 446.015 1577.71 760.453 1516.36C1074.89 1455.02 1198.43 1235.29 1198.43 1235.29C1053.66 1365.66 860.574 1418.98 685.07 1430.24C509.584 1441.5 394.275 1398.71 347.581 1330.62Z" fill="#FBAD18"/>
<path d="M222.41 1051.81L588.892 880.897C588.892 880.897 692.962 825.176 692.962 770.012C692.962 768.746 692.911 767.496 692.843 766.246C692.911 764.998 692.962 763.748 692.962 762.482C692.962 707.318 588.892 651.597 588.892 651.597C588.892 651.597 588.756 651.496 588.538 651.36L222.41 480.651C222.41 480.651 5.22555 395.989 2.39049 302.445C-14.9573 387.496 65.5717 460.997 132.128 523.877C221.06 607.881 260.6 691.345 259.874 766.281C260.6 841.217 221.06 924.68 132.128 1008.68C65.5885 1071.55 -14.9405 1145.05 2.39049 1230.08C5.14117 1136.52 222.41 1051.81 222.41 1051.81Z" fill="#EE212E"/>
</svg>
